<?xml version="1.0" encoding="UTF-8"?> <svg xmlns="http://www.w3.org/2000/svg" width="1120" height="275" viewBox="0 0 1120 275" fill="none"><g clip-path="url(#clip0_173_249)"><rect width="1120" height="275" fill="#36A8C3"></rect><g opacity="0.5"><path fill-rule="evenodd" clip-rule="evenodd" d="M170.176 60.749C164.709 63.1768 162.729 64.5561 161.932 66.4908C160.91 68.9716 158.423 71.6464 155.691 73.2005C152.476 75.0304 150.355 75.8324 142.739 78.0991C135.275 80.3204 129.317 82.874 122.795 86.6469C116.995 90.0026 114.04 92.2797 110.754 95.9274C109.364 97.4699 107.608 98.9457 106.571 99.4411C104.011 100.665 100.418 101.072 96.7534 100.554C91.6169 99.8278 88.6311 100.512 82.1915 103.889C76.2438 107.008 73.6095 108.072 65.3054 110.713C54.31 114.209 47.3953 117.23 37.6901 122.78C25.5104 129.744 20.0552 135.825 19.979 142.521C19.9321 146.657 17.7658 149.492 10.142 155.396C7.81935 157.195 3.943 160.244 1.52777 162.172C-0.887388 164.101 -7.6249 169.426 -13.4442 174.005C-20.4255 179.499 -24.5919 183.066 -25.692 184.49C-27.2081 186.452 -27.3315 186.81 -27.0568 188.44C-26.8906 189.426 -26.2001 191.911 -25.522 193.962C-24.8443 196.014 -23.7113 199.46 -23.0045 201.621C-22.2219 204.014 -21.2554 206.133 -20.5315 207.043L-19.3429 208.536L-21.0389 210.231C-21.9719 211.163 -23.8437 212.904 -25.1987 214.099C-28.1239 216.68 -29.1437 218.592 -28.7785 220.811C-28.6345 221.684 -27.4396 225.481 -26.1229 229.249C-24.8061 233.017 -23.0088 238.217 -22.1284 240.804C-19.9194 247.3 -18.8827 248.647 -13.0116 252.657L-8.18278 255.956L-12.7072 260.276C-15.1958 262.652 -19.4011 266.699 -22.0522 269.27L-26.8724 273.944L-25.8174 280.36C-24.556 288.03 -23.7589 290.164 -20.3662 294.953C-17.4852 299.019 -17.7911 298.856 -5.55909 302.854C-1.70906 304.113 5.23095 306.46 9.86346 308.069C18.5569 311.089 21.7441 311.877 24.9207 311.792C25.9359 311.765 26.8527 311.842 26.9576 311.964C27.0625 312.085 28.0191 314.464 29.0835 317.249C32.1037 325.152 32.7679 326.392 34.69 327.716C37.194 329.44 39.3846 330.665 39.8325 330.591C40.0554 330.555 40.0094 329.454 39.7266 328.052C39.2539 325.709 39.2868 325.508 40.3443 324.283C41.4766 322.972 44.6248 320.565 46.1617 319.836C46.932 319.47 47.0787 319.639 47.9038 321.85L48.8044 324.263L53.1959 325.502C57.8869 326.824 58.3966 327.107 59.0983 328.779C59.9706 330.856 62.7797 332.557 67.8564 334.082C73.8977 335.898 79.2873 336.792 83.6788 336.706C88.5483 336.612 92.4639 335.316 100.037 331.293C107.383 327.391 108.652 326.924 118.469 324.502C133.295 320.843 141.861 318.02 152.392 313.32C158.331 310.67 159.754 311.65 161.473 319.576C162.087 322.408 163.021 325.615 163.548 326.701C164.456 328.575 164.645 328.717 167.213 329.465C169.047 329.999 171.116 330.21 173.624 330.121C179.026 329.926 178.96 329.913 180.404 331.406C181.134 332.16 182.571 333.083 183.597 333.457C186.169 334.393 192.314 333.572 203.15 330.845C212.949 328.378 218.884 327.57 222.466 328.214C227.671 329.15 234.301 332.696 236.391 335.662C237.294 336.944 237.786 338.516 239.006 344.014C240.66 351.468 241.467 353.356 243.959 355.602C246.502 357.894 249.201 359.281 260.019 363.852C263.046 365.131 267.177 367.797 272.17 371.692C276.742 375.258 279.983 375.5 284.102 372.583C287.34 370.289 289.713 369.985 294.441 371.256C303.399 373.664 305.885 374.238 310.632 374.993C319.527 376.408 322.778 376.555 327.68 375.766C333.044 374.903 334.177 374.187 337.804 369.364C339.112 367.625 340.581 365.827 341.069 365.368C342.278 364.229 346.015 363.673 349.97 364.044C356.135 364.62 362.178 364.266 371.086 362.806C380.616 361.244 384.624 359.935 391.107 356.268C392.99 355.202 395.115 354.026 395.827 353.654C397.777 352.637 407.01 351.256 419.842 350.062C426.158 349.474 432.426 348.887 433.771 348.758C435.756 348.567 437.122 348.813 441.025 350.069C446.801 351.927 450.266 352.044 455.179 350.547C459.451 349.245 461.458 349.553 464.928 352.042C466.388 353.09 468.276 354.64 469.122 355.486C471.153 357.515 474.298 358.502 477.209 358.024C479.686 357.616 480.917 356.812 482.422 354.614C483.313 353.313 483.495 352.48 483.528 349.533C483.601 343.13 483.609 337.77 483.55 334.212C483.518 332.282 483.557 329.947 483.636 329.023C483.715 328.1 483.688 326.055 483.577 324.479C483.366 321.488 483.838 319.676 484.871 319.506C485.205 319.451 485.54 319.112 485.613 318.753C485.711 318.28 486.107 318.106 487.05 318.124C490.364 318.186 503.7 311.329 515.762 303.363C525.617 296.853 529.891 293.531 533.9 289.263C542.112 280.52 545.613 277.864 556.059 272.448C567.899 266.311 574.027 261.821 580.49 254.549C583.349 251.332 587.123 245.897 588.223 243.41C589.493 240.542 590.332 234.613 590.157 229.746C590.052 226.811 590.757 224.657 592.411 222.865C593.143 222.072 597.347 218.385 601.754 214.672C606.251 210.884 610.048 207.369 610.406 206.664C610.948 205.598 611.542 194.497 611.51 186.024C611.502 184.048 610.348 182.303 608.02 180.747L605.774 179.246L607.971 177.714C610.118 176.218 612.851 172.74 612.685 171.716C612.493 170.529 612.543 157.912 612.764 152.173C613.052 144.675 612.843 143.103 611.346 141.54C610.094 140.232 606.461 139.083 601.61 138.46C599.972 138.25 598.019 137.831 597.27 137.529C595.923 136.985 588.83 129.278 578.959 117.63C576.471 114.694 573.977 112.177 572.926 111.539C571.941 110.942 568.844 109.87 566.045 109.156C560.298 107.69 554.576 105.355 554.425 104.414C554.37 104.069 554.263 100.909 554.187 97.3928C553.982 87.8922 553.792 87.2346 550.366 84.1947C548.476 82.5168 546.057 78.9126 545.48 76.9135C544.884 74.8464 544.113 66.0851 543.938 59.3761C543.756 52.4098 543.265 51.8115 533.98 47.2012C527.069 43.7698 526.653 43.4325 525.806 40.5675C525.21 38.5481 524.934 38.1604 523.69 37.5897C521.845 36.7438 516.996 36.3609 508.462 36.3869C488.797 36.4475 450.028 36.2546 433.056 36.0118C427.236 35.9285 417.807 35.797 412.102 35.7197C406.397 35.6423 397.695 35.4956 392.763 35.3937C373.164 34.9893 370.245 35.168 354.067 37.765C337.51 40.4222 336.837 40.4305 329.277 38.0602C323.106 36.1257 317.018 35.9085 314.208 37.523C313.623 37.8594 312.307 39.2772 311.284 40.6736L309.425 43.2124L305.263 44.3352C299.729 45.8281 297.056 46.8021 293.367 48.6688C289.359 50.6969 285.77 53.3313 283.812 55.6826C282.691 57.0285 281.307 58.0452 278.98 59.2306C275.257 61.1273 274.05 62.4203 274.002 64.5611C273.969 66.0117 273.875 66.1062 271.225 67.3516C263.811 70.8353 263.497 71.0369 261.247 73.7395C259.091 76.3299 259.008 76.3838 256.533 76.7908C255.147 77.0187 252.161 77.1467 249.897 77.0748C244.781 76.913 242.363 77.5979 238.004 80.4442C236.295 81.5598 233.956 82.8378 232.805 83.2837C228.136 85.093 213.254 84.7592 203.568 82.6277C199.826 81.8042 195.89 80.7504 195.371 80.4336C195.298 80.3885 194.8 78.6154 194.265 76.4932C193.093 71.8482 192.676 71.4473 188.688 71.1318C185.439 70.875 185.869 71.5068 183.702 63.8006C182.067 57.9872 181.913 57.8491 177.677 58.4004C175.267 58.7138 173.542 59.2541 170.176 60.749Z" fill="#2EA0BB"></path><path opacity="0.5" d="M214.965 220.701C189.963 208.044 123.373 187.397 57.0327 206.059M214.965 220.701C228.823 205.808 269.096 177.741 319.33 184.618M214.965 220.701C249.224 176.455 353.88 119.126 498.428 243.775M214.965 220.701C242.266 208.981 312.766 194.096 376.357 228.313M214.965 220.701C222.722 164.968 247.661 64.2298 285.36 107.134M214.965 220.701C220.147 167.084 220.676 79.7431 181.334 159.314M214.965 220.701C238.787 179.402 314.59 98.543 427.232 105.495" stroke="#87CDDE" stroke-width="0.910765" stroke-dasharray="3.64 3.64"></path><rect x="393.155" y="111.56" width="73.2153" height="27.323" rx="4.55383" transform="rotate(-9.33815 393.155 111.56)" fill="#36A8C3"></rect><path d="M407.719 126.557L403.976 119.419L405.432 119.18L408.787 125.639L408.064 125.758L409.26 118.551L410.554 118.338L413.931 124.794L413.23 124.909L414.394 117.706L415.731 117.487L414.47 125.447L412.982 125.692L409.91 119.873L410.298 119.809L409.218 126.311L407.719 126.557ZM420.67 124.428L420.478 123.263L420.362 123.027L420.027 120.989C419.962 120.594 419.793 120.307 419.52 120.131C419.246 119.947 418.869 119.895 418.387 119.974C418.063 120.027 417.752 120.13 417.452 120.283C417.159 120.434 416.92 120.617 416.734 120.833L416.044 119.938C416.314 119.65 416.652 119.414 417.057 119.229C417.468 119.036 417.904 118.901 418.364 118.826C419.198 118.688 419.875 118.784 420.394 119.112C420.919 119.432 421.25 120.009 421.387 120.843L421.942 124.218L420.67 124.428ZM418.871 124.801C418.439 124.872 418.05 124.862 417.703 124.771C417.354 124.674 417.069 124.51 416.847 124.281C416.63 124.043 416.495 123.759 416.441 123.428C416.388 123.105 416.415 122.801 416.524 122.518C416.639 122.233 416.861 121.986 417.188 121.777C417.516 121.568 417.971 121.416 418.553 121.32L420.224 121.045L420.372 121.94L418.797 122.199C418.337 122.275 418.04 122.401 417.907 122.578C417.772 122.748 417.723 122.941 417.758 123.156C417.799 123.401 417.927 123.579 418.145 123.691C418.363 123.803 418.644 123.83 418.99 123.773C419.32 123.719 419.603 123.595 419.837 123.402C420.078 123.207 420.232 122.953 420.298 122.639L420.658 123.411C420.584 123.77 420.393 124.071 420.086 124.313C419.786 124.554 419.381 124.717 418.871 124.801ZM423.241 124.005L422.294 118.246L423.577 118.035L423.838 119.62L423.611 119.181C423.72 118.765 423.941 118.426 424.274 118.164C424.615 117.901 425.062 117.724 425.616 117.633L425.827 118.917C425.767 118.912 425.712 118.913 425.662 118.922C425.61 118.923 425.559 118.927 425.509 118.936C424.998 119.02 424.617 119.237 424.365 119.589C424.111 119.933 424.033 120.4 424.13 120.99L424.589 123.783L423.241 124.005ZM429.13 123.114C428.648 123.193 428.175 123.208 427.709 123.159C427.249 123.102 426.875 123.005 426.586 122.868L426.936 121.758C427.222 121.881 427.553 121.966 427.931 122.015C428.308 122.064 428.676 122.059 429.036 122C429.46 121.93 429.756 121.822 429.924 121.676C430.099 121.529 430.171 121.359 430.139 121.165C430.113 121.007 430.029 120.899 429.886 120.841C429.743 120.776 429.563 120.739 429.347 120.73C429.132 120.721 428.892 120.72 428.627 120.727C428.369 120.732 428.106 120.727 427.838 120.712C427.576 120.689 427.331 120.637 427.104 120.556C426.875 120.468 426.679 120.334 426.517 120.154C426.354 119.974 426.246 119.719 426.192 119.388C426.131 119.022 426.183 118.688 426.348 118.388C426.512 118.08 426.769 117.824 427.119 117.619C427.475 117.405 427.912 117.256 428.43 117.17C428.818 117.107 429.217 117.085 429.626 117.107C430.036 117.128 430.383 117.196 430.668 117.312L430.319 118.422C430.019 118.301 429.723 118.235 429.434 118.224C429.15 118.204 428.871 118.217 428.598 118.261C428.188 118.329 427.893 118.44 427.712 118.596C427.538 118.75 427.466 118.92 427.497 119.107C427.525 119.28 427.611 119.398 427.755 119.463C427.898 119.528 428.078 119.569 428.295 119.585C428.512 119.601 428.749 119.606 429.007 119.601C429.27 119.587 429.533 119.592 429.795 119.615C430.058 119.639 430.302 119.691 430.53 119.771C430.763 119.844 430.961 119.97 431.124 120.15C431.286 120.33 431.394 120.582 431.447 120.905C431.506 121.265 431.45 121.595 431.278 121.897C431.113 122.197 430.849 122.455 430.486 122.669C430.121 122.877 429.669 123.025 429.13 123.114ZM431.983 122.567L431.842 121.715L434.685 116.84L435.009 117.263L431.278 117.876L431.1 116.798L435.91 116.007L436.05 116.859L433.208 121.734L432.862 121.315L436.777 120.671L436.954 121.75L431.983 122.567ZM441.313 121.033L441.122 119.868L441.006 119.633L440.671 117.594C440.605 117.199 440.437 116.913 440.164 116.736C439.89 116.552 439.512 116.5 439.03 116.579C438.707 116.632 438.395 116.735 438.096 116.888C437.803 117.039 437.564 117.223 437.377 117.438L436.688 116.544C436.958 116.255 437.295 116.019 437.701 115.834C438.112 115.641 438.548 115.507 439.008 115.431C439.842 115.294 440.518 115.389 441.038 115.717C441.563 116.037 441.894 116.614 442.031 117.448L442.586 120.824L441.313 121.033ZM439.514 121.406C439.083 121.477 438.693 121.467 438.346 121.377C437.998 121.279 437.713 121.116 437.49 120.886C437.274 120.649 437.139 120.364 437.084 120.034C437.031 119.71 437.059 119.407 437.167 119.123C437.283 118.838 437.504 118.591 437.832 118.382C438.159 118.173 438.614 118.021 439.196 117.925L440.868 117.65L441.015 118.546L439.441 118.804C438.981 118.88 438.684 119.006 438.551 119.183C438.416 119.353 438.366 119.546 438.402 119.762C438.442 120.006 438.571 120.184 438.789 120.296C439.007 120.408 439.288 120.436 439.633 120.379C439.964 120.324 440.246 120.2 440.48 120.007C440.721 119.812 440.875 119.558 440.942 119.244L441.301 120.016C441.227 120.375 441.037 120.676 440.73 120.918C440.43 121.16 440.025 121.322 439.514 121.406ZM445.052 120.418L441.991 115.007L443.264 114.798L445.911 119.579L445.307 119.678L446.37 114.287L447.502 114.101L450.181 118.877L449.588 118.974L450.619 113.588L451.816 113.391L450.638 119.5L449.344 119.712L446.922 115.492L447.321 115.426L446.346 120.205L445.052 120.418ZM456.627 118.515L456.436 117.35L456.319 117.114L455.984 115.076C455.919 114.681 455.75 114.395 455.478 114.218C455.204 114.034 454.826 113.982 454.344 114.061C454.021 114.114 453.709 114.217 453.409 114.37C453.117 114.521 452.877 114.705 452.691 114.92L452.001 114.025C452.272 113.737 452.609 113.501 453.014 113.316C453.426 113.123 453.861 112.988 454.322 112.913C455.156 112.776 455.832 112.871 456.351 113.199C456.876 113.519 457.208 114.096 457.345 114.93L457.9 118.305L456.627 118.515ZM454.828 118.888C454.397 118.959 454.007 118.949 453.66 118.859C453.312 118.761 453.026 118.597 452.804 118.368C452.588 118.13 452.452 117.846 452.398 117.516C452.345 117.192 452.372 116.888 452.481 116.605C452.597 116.32 452.818 116.073 453.146 115.864C453.473 115.655 453.928 115.503 454.51 115.407L456.182 115.132L456.329 116.027L454.754 116.286C454.294 116.362 453.998 116.488 453.864 116.665C453.73 116.835 453.68 117.028 453.716 117.243C453.756 117.488 453.885 117.666 454.103 117.778C454.32 117.89 454.602 117.917 454.947 117.861C455.278 117.806 455.56 117.682 455.794 117.489C456.035 117.294 456.189 117.04 456.256 116.726L456.615 117.498C456.541 117.857 456.351 118.158 456.044 118.4C455.744 118.642 455.338 118.804 454.828 118.888Z" fill="#B0D8F6"></path><rect x="297.761" y="188.165" width="44.2153" height="27.323" rx="4.55383" transform="rotate(-9.33815 297.761 188.165)" fill="#36A8C3"></rect><path d="M310.654 203.436L309.413 195.887L310.815 195.657L311.861 202.02L315.808 201.37L316.003 202.557L310.654 203.436ZM309.655 200.998L308.961 200.348L312.219 196.921L312.911 197.56L309.655 200.998ZM319.105 202.124C318.516 202.221 317.97 202.182 317.469 202.006C316.966 201.822 316.545 201.53 316.206 201.128C315.866 200.726 315.65 200.241 315.557 199.673C315.462 199.098 315.512 198.569 315.706 198.087C315.898 197.597 316.204 197.189 316.623 196.861C317.042 196.534 317.546 196.322 318.135 196.225C318.732 196.127 319.281 196.166 319.783 196.342C320.291 196.517 320.711 196.802 321.042 197.198C321.38 197.593 321.597 198.081 321.693 198.664C321.786 199.232 321.737 199.761 321.544 200.25C321.358 200.738 321.053 201.15 320.628 201.486C320.21 201.813 319.702 202.026 319.105 202.124ZM318.916 200.97C319.246 200.916 319.529 200.795 319.764 200.609C320 200.423 320.167 200.181 320.265 199.884C320.371 199.586 320.394 199.254 320.334 198.887C320.273 198.513 320.144 198.206 319.95 197.965C319.761 197.715 319.525 197.54 319.243 197.439C318.961 197.337 318.658 197.313 318.334 197.366C318.003 197.421 317.72 197.541 317.485 197.728C317.257 197.913 317.09 198.154 316.984 198.452C316.877 198.743 316.854 199.076 316.915 199.449C316.976 199.816 317.104 200.124 317.3 200.372C317.496 200.62 317.731 200.796 318.007 200.898C318.289 200.999 318.592 201.023 318.916 200.97ZM317.1 195.653L318.313 193.936L319.898 193.676L318.264 195.462L317.1 195.653ZM325.474 201.077C324.92 201.168 324.4 201.128 323.914 200.957C323.435 200.777 323.033 200.489 322.709 200.092C322.385 199.695 322.174 199.198 322.076 198.601C321.978 198.004 322.019 197.466 322.198 196.986C322.378 196.506 322.667 196.108 323.065 195.791C323.471 195.473 323.95 195.269 324.504 195.178C324.985 195.099 325.435 195.136 325.851 195.289C326.266 195.434 326.621 195.705 326.915 196.099C327.209 196.494 327.411 197.029 327.522 197.705C327.632 198.374 327.615 198.945 327.472 199.419C327.327 199.886 327.082 200.259 326.736 200.537C326.391 200.815 325.97 200.995 325.474 201.077ZM325.446 199.896C325.769 199.843 326.045 199.724 326.273 199.539C326.508 199.352 326.679 199.11 326.785 198.812C326.898 198.513 326.925 198.18 326.864 197.813C326.803 197.44 326.671 197.133 326.469 196.893C326.273 196.644 326.034 196.469 325.752 196.368C325.476 196.266 325.177 196.241 324.853 196.294C324.53 196.348 324.251 196.467 324.015 196.654C323.787 196.839 323.617 197.081 323.504 197.38C323.396 197.671 323.373 198.004 323.435 198.377C323.495 198.744 323.623 199.052 323.819 199.3C324.022 199.547 324.261 199.722 324.537 199.824C324.819 199.926 325.122 199.95 325.446 199.896ZM327.37 200.688L327.147 199.329L326.949 197.788L326.589 196.275L326 192.694L327.338 192.475L328.654 200.477L327.37 200.688ZM329.522 200.334L329.382 199.482L332.224 194.606L332.548 195.029L328.817 195.643L328.64 194.564L333.449 193.773L333.59 194.625L330.747 199.501L330.401 199.081L334.316 198.438L334.493 199.516L329.522 200.334ZM330.02 193.529L331.233 191.812L332.818 191.551L331.185 193.337L330.02 193.529Z" fill="#B0D8F6"></path><rect x="151.825" y="165.089" width="58.2153" height="27.323" rx="4.55383" transform="rotate(-9.33815 151.825 165.089)" fill="#36A8C3"></rect><path d="M164.61 180.379L163.369 172.83L166.475 172.319C167.143 172.209 167.733 172.223 168.243 172.361C168.76 172.497 169.181 172.745 169.506 173.106C169.831 173.466 170.039 173.922 170.13 174.476C170.221 175.03 170.17 175.529 169.978 175.974C169.785 176.419 169.466 176.789 169.019 177.084C168.58 177.378 168.027 177.58 167.358 177.69L165.029 178.073L165.546 177.312L166.012 180.148L164.61 180.379ZM165.571 177.463L164.833 176.887L167.098 176.514C167.717 176.412 168.159 176.207 168.426 175.897C168.698 175.579 168.795 175.183 168.717 174.708C168.638 174.227 168.419 173.882 168.06 173.676C167.709 173.468 167.224 173.414 166.605 173.516L164.34 173.889L164.852 173.095L165.571 177.463ZM174.349 178.855C173.759 178.952 173.214 178.913 172.712 178.737C172.209 178.553 171.788 178.261 171.449 177.859C171.11 177.457 170.894 176.972 170.8 176.404C170.706 175.829 170.755 175.3 170.949 174.818C171.142 174.328 171.448 173.92 171.866 173.592C172.285 173.265 172.789 173.053 173.379 172.956C173.975 172.858 174.525 172.897 175.026 173.073C175.535 173.248 175.955 173.533 176.286 173.929C176.624 174.324 176.841 174.812 176.936 175.395C177.03 175.963 176.98 176.491 176.787 176.981C176.602 177.469 176.297 177.881 175.872 178.217C175.453 178.544 174.946 178.757 174.349 178.855ZM174.159 177.701C174.49 177.647 174.773 177.526 175.008 177.34C175.243 177.154 175.41 176.912 175.509 176.615C175.615 176.317 175.638 175.985 175.578 175.618C175.516 175.244 175.388 174.937 175.193 174.696C175.005 174.446 174.769 174.271 174.486 174.169C174.204 174.068 173.901 174.044 173.577 174.097C173.247 174.152 172.964 174.272 172.729 174.459C172.501 174.644 172.334 174.885 172.228 175.183C172.12 175.474 172.097 175.807 172.159 176.18C172.219 176.547 172.347 176.855 172.543 177.103C172.739 177.351 172.975 177.527 173.25 177.629C173.532 177.73 173.835 177.754 174.159 177.701ZM177.709 178.225L177.569 177.373L180.411 172.497L180.735 172.92L177.004 173.534L176.827 172.456L181.636 171.665L181.776 172.517L178.934 177.392L178.588 176.973L182.503 176.329L182.68 177.408L177.709 178.225ZM185.802 170.913C186.262 170.838 186.686 170.86 187.075 170.981C187.472 171.1 187.805 171.33 188.075 171.669C188.344 172.002 188.526 172.459 188.622 173.041L189.164 176.341L187.816 176.563L187.302 173.436C187.218 172.925 187.033 172.564 186.747 172.353C186.469 172.14 186.114 172.069 185.682 172.14C185.366 172.192 185.096 172.303 184.873 172.473C184.65 172.642 184.491 172.868 184.397 173.149C184.309 173.422 184.297 173.752 184.361 174.141L184.84 177.052L183.492 177.274L182.545 171.515L183.828 171.304L184.083 172.857L183.779 172.42C183.92 172.02 184.165 171.692 184.514 171.435C184.869 171.17 185.298 170.996 185.802 170.913ZM193.991 175.548L193.799 174.383L193.683 174.147L193.348 172.109C193.283 171.714 193.114 171.428 192.841 171.251C192.568 171.067 192.19 171.015 191.708 171.094C191.384 171.147 191.073 171.25 190.773 171.403C190.48 171.554 190.241 171.738 190.055 171.953L189.365 171.058C189.635 170.77 189.973 170.534 190.378 170.349C190.789 170.156 191.225 170.021 191.685 169.946C192.519 169.809 193.196 169.904 193.715 170.232C194.24 170.552 194.571 171.129 194.708 171.963L195.264 175.338L193.991 175.548ZM192.192 175.921C191.76 175.992 191.371 175.982 191.024 175.892C190.675 175.794 190.39 175.63 190.168 175.401C189.952 175.163 189.816 174.879 189.762 174.548C189.709 174.225 189.736 173.921 189.845 173.638C189.96 173.353 190.182 173.106 190.509 172.897C190.837 172.688 191.292 172.536 191.874 172.44L193.546 172.165L193.693 173.06L192.118 173.319C191.658 173.395 191.361 173.521 191.228 173.698C191.093 173.868 191.044 174.061 191.079 174.276C191.12 174.521 191.249 174.699 191.466 174.811C191.684 174.923 191.966 174.95 192.311 174.894C192.641 174.839 192.924 174.715 193.158 174.522C193.399 174.327 193.553 174.073 193.619 173.759L193.979 174.531C193.905 174.89 193.714 175.191 193.407 175.433C193.107 175.674 192.702 175.837 192.192 175.921ZM198.872 168.764C199.332 168.688 199.757 168.711 200.146 168.831C200.542 168.951 200.875 169.18 201.145 169.52C201.414 169.852 201.596 170.31 201.692 170.892L202.235 174.192L200.887 174.414L200.372 171.286C200.289 170.776 200.104 170.415 199.818 170.203C199.539 169.991 199.184 169.92 198.753 169.991C198.436 170.043 198.167 170.154 197.944 170.323C197.72 170.493 197.562 170.718 197.468 171C197.38 171.273 197.368 171.603 197.431 171.991L197.91 174.903L196.562 175.125L195.615 169.366L196.899 169.155L197.154 170.708L196.849 170.271C196.99 169.871 197.236 169.543 197.585 169.286C197.94 169.021 198.369 168.847 198.872 168.764ZM197.416 168.261L198.629 166.544L200.214 166.284L198.581 168.07L197.416 168.261Z" fill="#B0D8F6"></path><rect x="25.5039" y="210.783" width="64.2153" height="27.323" rx="4.55383" transform="rotate(-9.33815 25.5039 210.783)" fill="#36A8C3"></rect><path d="M40.647 225.795C40.0574 225.892 39.4794 225.902 38.913 225.825C38.3454 225.742 37.8816 225.593 37.5215 225.379L37.8277 224.21C38.1687 224.397 38.575 224.533 39.0468 224.618C39.5186 224.703 39.9881 224.707 40.4554 224.63C40.8509 224.565 41.1637 224.47 41.394 224.343C41.6242 224.217 41.785 224.072 41.8764 223.909C41.9666 223.739 41.9964 223.561 41.9656 223.374C41.9278 223.144 41.815 222.974 41.6271 222.865C41.4381 222.748 41.2041 222.672 40.9251 222.637C40.6521 222.593 40.3479 222.562 40.0126 222.543C39.6844 222.523 39.3509 222.493 39.012 222.453C38.6791 222.405 38.3672 222.327 38.0764 222.219C37.7915 222.104 37.5452 221.93 37.3372 221.698C37.1293 221.467 36.9922 221.15 36.926 220.747C36.8587 220.337 36.905 219.946 37.0651 219.572C37.2313 219.191 37.5207 218.862 37.9333 218.588C38.352 218.305 38.9064 218.107 39.5966 217.993C40.0495 217.919 40.5083 217.902 40.973 217.944C41.4377 217.986 41.8531 218.087 42.2193 218.249L41.9563 219.41C41.5852 219.265 41.2123 219.175 40.8375 219.14C40.4614 219.099 40.1081 219.105 39.7773 219.16C39.3891 219.223 39.0804 219.322 38.8514 219.456C38.6295 219.588 38.4734 219.739 38.3832 219.909C38.3002 220.078 38.2747 220.26 38.3066 220.454C38.3444 220.684 38.4542 220.858 38.6361 220.975C38.8239 221.085 39.0537 221.158 39.3255 221.194C39.6046 221.23 39.9123 221.26 40.2489 221.286C40.5842 221.305 40.9177 221.335 41.2495 221.376C41.5884 221.417 41.8996 221.491 42.1833 221.599C42.4741 221.707 42.7199 221.877 42.9206 222.109C43.1286 222.341 43.265 222.655 43.3301 223.05C43.3963 223.453 43.3463 223.845 43.1802 224.227C43.0201 224.6 42.7307 224.928 42.312 225.211C41.8922 225.487 41.3372 225.682 40.647 225.795ZM44.0361 225.127L43.896 224.275L46.7382 219.399L47.0625 219.822L43.3311 220.436L43.1538 219.358L47.9636 218.567L48.1037 219.419L45.2615 224.294L44.9156 223.875L48.8303 223.231L49.0077 224.309L44.0361 225.127ZM52.3892 223.831C51.7853 223.93 51.2254 223.893 50.7095 223.719C50.1996 223.538 49.775 223.246 49.4357 222.843C49.0964 222.441 48.8801 221.956 48.7867 221.389C48.6921 220.813 48.7417 220.285 48.9356 219.802C49.1284 219.313 49.4377 218.904 49.8636 218.575C50.2968 218.246 50.8153 218.031 51.4192 217.932C51.98 217.84 52.4914 217.874 52.9534 218.034C53.4214 218.186 53.8029 218.463 54.0979 218.865L53.162 219.639C52.9445 219.394 52.6993 219.228 52.4264 219.14C52.1606 219.05 51.884 219.03 51.5964 219.077C51.2657 219.131 50.9791 219.252 50.7368 219.44C50.4944 219.627 50.3202 219.87 50.2141 220.168C50.1069 220.459 50.084 220.791 50.1455 221.165C50.207 221.539 50.3357 221.85 50.5316 222.098C50.7263 222.34 50.9685 222.51 51.2581 222.61C51.5478 222.71 51.858 222.733 52.1887 222.679C52.4763 222.631 52.7317 222.523 52.9548 222.353C53.1852 222.183 53.3642 221.946 53.4918 221.645L54.6264 222.079C54.4745 222.547 54.2023 222.935 53.81 223.243C53.4236 223.543 52.95 223.739 52.3892 223.831ZM55.0424 223.317L54.9023 222.465L57.7446 217.59L58.0689 218.012L54.3375 218.626L54.1601 217.548L58.97 216.757L59.1101 217.609L56.2678 222.484L55.9219 222.065L59.8367 221.421L60.014 222.5L55.0424 223.317ZM63.4603 222.01C62.8204 222.116 62.239 222.082 61.7159 221.91C61.1988 221.729 60.7706 221.437 60.4313 221.035C60.0992 220.632 59.8864 220.147 59.793 219.579C59.6984 219.003 59.7409 218.476 59.9204 217.996C60.106 217.508 60.4009 217.101 60.8053 216.776C61.2168 216.45 61.7102 216.24 62.2854 216.145C62.8462 216.053 63.3659 216.093 63.8447 216.265C64.3234 216.438 64.7253 216.726 65.0502 217.13C65.3752 217.535 65.5873 218.039 65.6866 218.643C65.6961 218.7 65.7031 218.766 65.7077 218.839C65.7196 218.911 65.7272 218.979 65.7306 219.045L60.9316 219.834L60.7844 218.939L64.8717 218.267L64.3894 218.635C64.3422 218.303 64.226 218.023 64.0408 217.795C63.8556 217.567 63.6254 217.401 63.3501 217.299C63.082 217.195 62.7862 217.17 62.4627 217.223C62.132 217.278 61.8526 217.398 61.6246 217.583C61.4038 217.767 61.2428 218 61.1416 218.283C61.0464 218.557 61.0271 218.866 61.0839 219.211L61.1194 219.427C61.1761 219.772 61.3054 220.065 61.5073 220.305C61.7093 220.545 61.9658 220.713 62.2771 220.809C62.5883 220.906 62.9308 220.923 63.3047 220.862C63.6282 220.809 63.9111 220.711 64.1534 220.567C64.3957 220.424 64.5997 220.228 64.7656 219.979L65.6247 220.691C65.4155 221.035 65.1268 221.323 64.7586 221.553C64.3963 221.775 63.9636 221.928 63.4603 222.01ZM69.6729 220.989C69.0689 221.088 68.509 221.051 67.9931 220.877C67.4832 220.695 67.0587 220.403 66.7193 220.001C66.38 219.599 66.1637 219.114 66.0703 218.546C65.9757 217.971 66.0253 217.443 66.2192 216.96C66.412 216.471 66.7213 216.062 67.1472 215.733C67.5804 215.404 68.0989 215.189 68.7028 215.09C69.2636 214.998 69.775 215.032 70.237 215.192C70.705 215.344 71.0866 215.621 71.3815 216.023L70.4456 216.797C70.2281 216.552 69.9829 216.386 69.71 216.298C69.4442 216.208 69.1676 216.187 68.88 216.235C68.5493 216.289 68.2627 216.41 68.0204 216.598C67.778 216.785 67.6038 217.028 67.4977 217.326C67.3905 217.617 67.3676 217.949 67.4291 218.323C67.4906 218.697 67.6193 219.008 67.8152 219.256C68.0099 219.497 68.2521 219.668 68.5417 219.768C68.8314 219.868 69.1416 219.891 69.4723 219.837C69.7599 219.789 70.0153 219.681 70.2384 219.511C70.4688 219.341 70.6478 219.104 70.7754 218.803L71.91 219.236C71.7581 219.704 71.4859 220.093 71.0936 220.401C70.7072 220.701 70.2336 220.897 69.6729 220.989ZM72.8005 220.397L71.8536 214.638L73.2016 214.416L74.1486 220.175L72.8005 220.397ZM72.3769 213.577C72.1253 213.619 71.9038 213.574 71.7124 213.443C71.5282 213.311 71.4178 213.133 71.3812 212.91C71.3433 212.68 71.3911 212.477 71.5244 212.3C71.6638 212.114 71.8593 212.001 72.1109 211.96C72.3625 211.918 72.5799 211.96 72.7629 212.085C72.9519 212.202 73.0647 212.371 73.1013 212.594C73.1404 212.832 73.0944 213.046 72.9634 213.237C72.8312 213.421 72.6357 213.535 72.3769 213.577ZM77.7965 213.594C78.2567 213.519 78.6813 213.541 79.0703 213.662C79.4665 213.781 79.7996 214.011 80.0696 214.35C80.3384 214.683 80.5207 215.14 80.6164 215.722L81.1591 219.022L79.811 219.244L79.2968 216.117C79.2128 215.606 79.0279 215.245 78.7421 215.034C78.4635 214.821 78.1085 214.75 77.6771 214.821C77.3608 214.873 77.091 214.984 76.8678 215.154C76.6447 215.323 76.4861 215.549 76.392 215.83C76.304 216.103 76.2919 216.434 76.3557 216.822L76.8346 219.734L75.4865 219.955L74.5395 214.196L75.8229 213.985L76.0782 215.538L75.7737 215.101C75.9147 214.701 76.1598 214.373 76.5089 214.116C76.8641 213.851 77.2933 213.677 77.7965 213.594Z" fill="#B0D8F6"></path><rect x="468.173" y="247.827" width="59.2153" height="27.323" rx="4.55383" transform="rotate(-9.33815 468.173 247.827)" fill="#36A8C3"></rect><path d="M481.917 261.131L481.568 259.483L484.85 254.723L486.425 254.464L483.71 258.499L483.074 259.479L481.917 261.131ZM480.958 263.116L479.717 255.567L481.119 255.337L482.36 262.886L480.958 263.116ZM486.221 262.251L482.765 259.286L483.524 258.109L487.86 261.981L486.221 262.251ZM488.149 261.934L487.202 256.175L488.485 255.964L488.746 257.549L488.519 257.11C488.627 256.694 488.849 256.355 489.182 256.093C489.523 255.83 489.97 255.653 490.524 255.562L490.735 256.846C490.675 256.841 490.62 256.842 490.569 256.851C490.518 256.852 490.467 256.856 490.417 256.865C489.906 256.949 489.525 257.166 489.272 257.518C489.019 257.862 488.941 258.329 489.038 258.919L489.497 261.712L488.149 261.934ZM495.331 260.753L495.139 259.588L495.023 259.352L494.688 257.314C494.623 256.919 494.454 256.633 494.181 256.456C493.907 256.272 493.529 256.22 493.048 256.299C492.724 256.352 492.413 256.455 492.113 256.608C491.82 256.759 491.581 256.943 491.395 257.158L490.705 256.263C490.975 255.975 491.313 255.739 491.718 255.554C492.129 255.361 492.565 255.227 493.025 255.151C493.859 255.014 494.536 255.109 495.055 255.437C495.58 255.757 495.911 256.334 496.048 257.168L496.603 260.544L495.331 260.753ZM493.531 261.126C493.1 261.197 492.711 261.187 492.364 261.097C492.015 260.999 491.73 260.835 491.508 260.606C491.291 260.369 491.156 260.084 491.102 259.754C491.048 259.43 491.076 259.127 491.184 258.843C491.3 258.558 491.522 258.311 491.849 258.102C492.176 257.893 492.631 257.741 493.214 257.645L494.885 257.37L495.033 258.265L493.458 258.524C492.998 258.6 492.701 258.726 492.568 258.903C492.433 259.073 492.384 259.266 492.419 259.482C492.459 259.726 492.588 259.904 492.806 260.016C493.024 260.128 493.305 260.155 493.65 260.099C493.981 260.044 494.264 259.92 494.498 259.727C494.739 259.532 494.893 259.278 494.959 258.964L495.319 259.736C495.245 260.095 495.054 260.396 494.747 260.638C494.447 260.88 494.042 261.042 493.531 261.126ZM498.791 258.866L498.545 257.167L501.096 253.89L502.714 253.624L500.58 256.611L499.966 257.321L498.791 258.866ZM497.902 260.33L496.586 252.328L497.934 252.106L499.25 260.108L497.902 260.33ZM502.248 259.615L499.718 257.362L500.392 256.144L503.887 259.346L502.248 259.615ZM506.696 258.961C506.106 259.058 505.561 259.019 505.059 258.843C504.556 258.66 504.135 258.367 503.796 257.965C503.457 257.563 503.24 257.078 503.147 256.51C503.052 255.935 503.102 255.406 503.296 254.924C503.489 254.435 503.794 254.026 504.213 253.699C504.632 253.372 505.136 253.159 505.726 253.062C506.322 252.964 506.871 253.003 507.373 253.179C507.882 253.354 508.302 253.639 508.632 254.035C508.971 254.43 509.188 254.919 509.283 255.501C509.377 256.069 509.327 256.598 509.134 257.087C508.949 257.576 508.644 257.988 508.219 258.323C507.8 258.651 507.292 258.863 506.696 258.961ZM506.506 257.808C506.837 257.753 507.12 257.633 507.355 257.446C507.59 257.26 507.757 257.019 507.856 256.722C507.962 256.424 507.985 256.091 507.924 255.725C507.863 255.351 507.735 255.043 507.54 254.802C507.351 254.552 507.116 254.377 506.833 254.276C506.551 254.175 506.248 254.151 505.924 254.204C505.594 254.258 505.311 254.379 505.076 254.565C504.848 254.75 504.681 254.992 504.574 255.29C504.467 255.581 504.444 255.913 504.506 256.287C504.566 256.653 504.694 256.961 504.89 257.209C505.086 257.458 505.322 257.633 505.597 257.736C505.879 257.837 506.182 257.861 506.506 257.808ZM504.69 252.491L505.903 250.774L507.488 250.513L505.855 252.299L504.69 252.491ZM511.729 258.056L508.668 252.645L509.941 252.436L512.588 257.217L511.984 257.317L513.047 251.925L514.179 251.739L516.859 256.515L516.265 256.613L517.296 251.226L518.493 251.029L517.315 257.138L516.021 257.35L513.599 253.13L513.998 253.064L513.023 257.843L511.729 258.056Z" fill="#B0D8F6"></path><rect x="255.702" y="112.011" width="59.2153" height="27.323" rx="4.55383" transform="rotate(-9.33815 255.702 112.011)" fill="#36A8C3"></rect><path d="M272.031 126.828C271.442 126.925 270.884 126.921 270.357 126.816C269.836 126.702 269.364 126.503 268.941 126.218C268.516 125.926 268.164 125.559 267.885 125.118C267.605 124.676 267.42 124.175 267.327 123.615C267.235 123.054 267.251 122.52 267.374 122.012C267.497 121.504 267.714 121.048 268.024 120.642C268.34 120.229 268.73 119.888 269.196 119.619C269.66 119.343 270.187 119.157 270.776 119.06C271.416 118.955 272.008 118.965 272.553 119.089C273.105 119.213 273.59 119.447 274.009 119.791L273.266 120.799C272.923 120.553 272.568 120.39 272.2 120.31C271.839 120.222 271.453 120.212 271.043 120.279C270.648 120.344 270.292 120.469 269.975 120.654C269.658 120.839 269.397 121.07 269.192 121.348C268.986 121.625 268.842 121.937 268.759 122.283C268.682 122.628 268.676 122.994 268.74 123.382C268.803 123.763 268.925 124.105 269.108 124.407C269.298 124.708 269.535 124.961 269.82 125.165C270.103 125.362 270.421 125.498 270.773 125.573C271.125 125.648 271.502 125.653 271.905 125.587C272.279 125.525 272.629 125.408 272.955 125.237C273.287 125.057 273.588 124.8 273.858 124.468L274.829 125.383C274.485 125.764 274.065 126.081 273.567 126.332C273.075 126.576 272.564 126.741 272.031 126.828ZM273.472 125.417L273.007 122.592L274.334 122.374L274.829 125.383L273.472 125.417ZM278.707 125.698C278.153 125.789 277.633 125.748 277.147 125.577C276.667 125.398 276.266 125.109 275.942 124.712C275.618 124.315 275.407 123.818 275.309 123.221C275.211 122.625 275.252 122.086 275.431 121.606C275.611 121.126 275.9 120.728 276.298 120.412C276.703 120.094 277.183 119.89 277.737 119.798C278.218 119.719 278.667 119.756 279.084 119.909C279.499 120.055 279.854 120.325 280.148 120.72C280.441 121.115 280.644 121.65 280.755 122.326C280.865 122.994 280.848 123.566 280.705 124.04C280.56 124.507 280.315 124.879 279.969 125.158C279.624 125.436 279.203 125.616 278.707 125.698ZM278.679 124.517C279.002 124.464 279.278 124.345 279.506 124.159C279.741 123.973 279.912 123.731 280.018 123.433C280.131 123.134 280.158 122.801 280.097 122.434C280.036 122.06 279.904 121.753 279.702 121.513C279.506 121.265 279.267 121.09 278.985 120.989C278.709 120.886 278.41 120.862 278.086 120.915C277.763 120.968 277.483 121.088 277.248 121.274C277.02 121.46 276.85 121.702 276.736 122.001C276.629 122.292 276.606 122.624 276.668 122.998C276.728 123.365 276.856 123.672 277.052 123.921C277.255 124.168 277.494 124.343 277.77 124.445C278.052 124.546 278.355 124.57 278.679 124.517ZM280.603 125.308L280.38 123.949L280.182 122.409L279.822 120.895L279.233 117.315L280.571 117.095L281.886 125.097L280.603 125.308ZM286.777 124.293L286.586 123.128L286.47 122.893L286.134 120.854C286.069 120.459 285.9 120.173 285.628 119.996C285.354 119.812 284.976 119.76 284.494 119.839C284.171 119.892 283.859 119.995 283.559 120.148C283.267 120.299 283.027 120.483 282.841 120.698L282.151 119.804C282.422 119.515 282.759 119.279 283.165 119.094C283.576 118.901 284.012 118.767 284.472 118.691C285.306 118.554 285.982 118.649 286.501 118.977C287.027 119.297 287.358 119.874 287.495 120.708L288.05 124.084L286.777 124.293ZM284.978 124.666C284.547 124.737 284.157 124.727 283.81 124.637C283.462 124.539 283.176 124.375 282.954 124.146C282.738 123.909 282.603 123.624 282.548 123.294C282.495 122.97 282.523 122.667 282.631 122.383C282.747 122.098 282.968 121.851 283.296 121.642C283.623 121.433 284.078 121.281 284.66 121.185L286.332 120.91L286.479 121.805L284.905 122.064C284.444 122.14 284.148 122.266 284.014 122.443C283.88 122.613 283.83 122.806 283.866 123.022C283.906 123.266 284.035 123.444 284.253 123.556C284.47 123.668 284.752 123.696 285.097 123.639C285.428 123.584 285.71 123.46 285.944 123.267C286.185 123.072 286.339 122.818 286.406 122.504L286.765 123.276C286.691 123.635 286.501 123.936 286.194 124.178C285.894 124.42 285.488 124.582 284.978 124.666ZM291.659 117.509C292.119 117.433 292.543 117.456 292.932 117.577C293.329 117.696 293.662 117.926 293.932 118.265C294.2 118.597 294.383 119.055 294.478 119.637L295.021 122.937L293.673 123.159L293.159 120.031C293.075 119.521 292.89 119.16 292.604 118.949C292.326 118.736 291.971 118.665 291.539 118.736C291.223 118.788 290.953 118.899 290.73 119.069C290.507 119.238 290.348 119.464 290.254 119.745C290.166 120.018 290.154 120.348 290.218 120.737L290.697 123.648L289.349 123.87L288.402 118.111L289.685 117.9L289.94 119.453L289.636 119.016C289.777 118.616 290.022 118.288 290.371 118.031C290.726 117.766 291.155 117.592 291.659 117.509ZM290.203 117.006L291.415 115.29L293.001 115.029L291.367 116.815L290.203 117.006ZM298.092 122.51C297.61 122.589 297.136 122.604 296.67 122.555C296.211 122.498 295.836 122.401 295.548 122.264L295.897 121.154C296.183 121.277 296.515 121.362 296.892 121.411C297.269 121.46 297.638 121.455 297.997 121.396C298.421 121.326 298.717 121.218 298.885 121.072C299.061 120.925 299.132 120.755 299.1 120.561C299.074 120.403 298.99 120.295 298.848 120.237C298.704 120.172 298.524 120.135 298.309 120.126C298.093 120.117 297.853 120.116 297.588 120.123C297.331 120.128 297.068 120.123 296.8 120.108C296.537 120.085 296.293 120.033 296.065 119.952C295.836 119.864 295.641 119.73 295.478 119.55C295.316 119.37 295.207 119.115 295.153 118.784C295.093 118.418 295.145 118.084 295.31 117.784C295.473 117.476 295.73 117.22 296.08 117.015C296.437 116.801 296.874 116.652 297.391 116.566C297.779 116.503 298.178 116.481 298.588 116.503C298.998 116.524 299.345 116.592 299.63 116.708L299.281 117.818C298.98 117.697 298.685 117.631 298.395 117.62C298.111 117.6 297.833 117.613 297.56 117.657C297.15 117.725 296.854 117.836 296.673 117.992C296.499 118.146 296.427 118.316 296.458 118.503C296.487 118.676 296.572 118.794 296.716 118.859C296.86 118.924 297.04 118.965 297.257 118.981C297.473 118.997 297.711 119.002 297.968 118.997C298.232 118.983 298.495 118.988 298.757 119.011C299.019 119.035 299.264 119.087 299.491 119.167C299.725 119.24 299.923 119.366 300.085 119.546C300.248 119.726 300.356 119.978 300.409 120.301C300.468 120.661 300.412 120.991 300.24 121.293C300.075 121.593 299.811 121.851 299.447 122.065C299.083 122.273 298.631 122.421 298.092 122.51ZM302.308 120.421L302.062 118.723L304.613 115.445L306.23 115.179L304.097 118.166L303.482 118.877L302.308 120.421ZM301.419 121.885L300.103 113.883L301.451 113.662L302.767 121.664L301.419 121.885ZM305.765 121.171L303.234 118.917L303.909 117.699L307.404 120.901L305.765 121.171Z" fill="#B0D8F6"></path><rect x="345.875" y="233.786" width="67.2153" height="27.323" rx="4.55383" transform="rotate(-9.33815 345.875 233.786)" fill="#36A8C3"></rect><path d="M359.618 247.091L359.27 245.442L362.552 240.683L364.127 240.424L361.412 244.459L360.776 245.439L359.618 247.091ZM358.66 249.076L357.419 241.527L358.821 241.296L360.062 248.845L358.66 249.076ZM363.923 248.211L360.467 245.246L361.226 244.069L365.562 247.941L363.923 248.211ZM369.367 247.315L369.176 246.151L369.059 245.915L368.724 243.877C368.659 243.481 368.49 243.195 368.217 243.019C367.944 242.835 367.566 242.782 367.084 242.862C366.761 242.915 366.449 243.018 366.149 243.17C365.856 243.322 365.617 243.505 365.431 243.721L364.741 242.826C365.011 242.538 365.349 242.301 365.754 242.117C366.166 241.924 366.601 241.789 367.061 241.713C367.895 241.576 368.572 241.672 369.091 242C369.616 242.32 369.947 242.897 370.085 243.731L370.64 247.106L369.367 247.315ZM367.568 247.689C367.136 247.76 366.747 247.75 366.4 247.659C366.051 247.562 365.766 247.398 365.544 247.169C365.328 246.931 365.192 246.647 365.138 246.316C365.085 245.993 365.112 245.689 365.221 245.405C365.336 245.121 365.558 244.874 365.885 244.665C366.213 244.456 366.668 244.304 367.25 244.208L368.922 243.933L369.069 244.828L367.494 245.087C367.034 245.163 366.737 245.289 366.604 245.466C366.47 245.636 366.42 245.828 366.455 246.044C366.496 246.289 366.625 246.467 366.842 246.579C367.06 246.69 367.342 246.718 367.687 246.661C368.017 246.607 368.3 246.483 368.534 246.289C368.775 246.095 368.929 245.84 368.995 245.527L369.355 246.298C369.281 246.658 369.091 246.958 368.783 247.201C368.483 247.442 368.078 247.605 367.568 247.689ZM374.118 246.612C373.486 246.716 372.97 246.634 372.572 246.367C372.172 246.093 371.92 245.637 371.815 244.997L370.965 239.831L372.313 239.609L373.158 244.743C373.202 245.016 373.306 245.217 373.467 245.345C373.636 245.473 373.846 245.516 374.097 245.474C374.399 245.425 374.638 245.304 374.813 245.113L375.349 246.011C375.212 246.166 375.034 246.295 374.814 246.397C374.595 246.5 374.363 246.571 374.118 246.612ZM370.41 242.381L370.233 241.303L374.072 240.671L374.249 241.75L370.41 242.381ZM378.489 245.893C377.899 245.99 377.354 245.95 376.852 245.774C376.349 245.591 375.928 245.299 375.589 244.897C375.25 244.495 375.033 244.01 374.94 243.442C374.845 242.866 374.895 242.338 375.089 241.855C375.282 241.366 375.587 240.958 376.006 240.63C376.425 240.303 376.929 240.091 377.519 239.994C378.115 239.896 378.665 239.935 379.166 240.111C379.675 240.285 380.095 240.571 380.425 240.967C380.764 241.362 380.981 241.85 381.076 242.433C381.17 243.001 381.12 243.529 380.927 244.019C380.742 244.507 380.437 244.919 380.012 245.255C379.593 245.582 379.085 245.795 378.489 245.893ZM378.299 244.739C378.63 244.685 378.913 244.564 379.148 244.378C379.383 244.192 379.55 243.95 379.649 243.653C379.755 243.355 379.778 243.023 379.717 242.656C379.656 242.282 379.528 241.975 379.333 241.733C379.144 241.484 378.909 241.309 378.626 241.207C378.344 241.106 378.041 241.082 377.717 241.135C377.387 241.19 377.104 241.31 376.869 241.496C376.641 241.682 376.474 241.923 376.367 242.221C376.26 242.512 376.237 242.844 376.299 243.218C376.359 243.585 376.487 243.892 376.683 244.141C376.879 244.389 377.115 244.565 377.39 244.667C377.672 244.768 377.975 244.792 378.299 244.739ZM383.522 244.988L380.461 239.576L381.734 239.367L384.381 244.149L383.777 244.248L384.84 238.856L385.972 238.67L388.652 243.446L388.058 243.544L389.089 238.158L390.286 237.961L389.108 244.069L387.814 244.282L385.392 240.061L385.791 239.996L384.816 244.775L383.522 244.988ZM391.728 243.638L390.781 237.879L392.129 237.658L393.076 243.417L391.728 243.638ZM391.305 236.819C391.053 236.86 390.832 236.815 390.64 236.684C390.456 236.552 390.346 236.375 390.309 236.152C390.271 235.922 390.319 235.718 390.452 235.541C390.592 235.356 390.787 235.242 391.039 235.201C391.29 235.16 391.508 235.201 391.691 235.326C391.88 235.443 391.993 235.613 392.029 235.836C392.068 236.073 392.022 236.287 391.891 236.479C391.759 236.663 391.564 236.776 391.305 236.819ZM397.069 242.838C396.465 242.937 395.905 242.9 395.389 242.726C394.879 242.544 394.455 242.252 394.115 241.85C393.776 241.448 393.56 240.963 393.466 240.395C393.372 239.82 393.421 239.291 393.615 238.809C393.808 238.319 394.117 237.91 394.543 237.582C394.976 237.252 395.495 237.038 396.099 236.939C396.66 236.846 397.171 236.88 397.633 237.041C398.101 237.193 398.483 237.47 398.778 237.871L397.842 238.646C397.624 238.401 397.379 238.234 397.106 238.146C396.84 238.057 396.564 238.036 396.276 238.083C395.945 238.138 395.659 238.259 395.416 238.446C395.174 238.634 395 238.877 394.894 239.175C394.787 239.466 394.764 239.798 394.825 240.172C394.887 240.546 395.015 240.857 395.211 241.105C395.406 241.346 395.648 241.517 395.938 241.617C396.227 241.717 396.538 241.74 396.868 241.685C397.156 241.638 397.411 241.53 397.635 241.36C397.865 241.189 398.044 240.953 398.171 240.652L399.306 241.085C399.154 241.553 398.882 241.941 398.49 242.25C398.103 242.549 397.63 242.745 397.069 242.838ZM402.884 241.881C402.244 241.987 401.663 241.953 401.14 241.781C400.623 241.6 400.195 241.308 399.855 240.906C399.523 240.503 399.31 240.018 399.217 239.45C399.122 238.874 399.165 238.347 399.344 237.867C399.53 237.379 399.825 236.972 400.229 236.647C400.641 236.321 401.134 236.111 401.709 236.016C402.27 235.924 402.79 235.964 403.269 236.136C403.747 236.308 404.149 236.597 404.474 237.001C404.799 237.406 405.011 237.91 405.111 238.514C405.12 238.571 405.127 238.636 405.132 238.71C405.144 238.781 405.151 238.85 405.155 238.916L400.356 239.705L400.208 238.81L404.296 238.138L403.813 238.505C403.766 238.174 403.65 237.894 403.465 237.666C403.28 237.438 403.049 237.272 402.774 237.17C402.506 237.066 402.21 237.041 401.887 237.094C401.556 237.149 401.277 237.269 401.049 237.454C400.828 237.638 400.667 237.871 400.566 238.153C400.47 238.428 400.451 238.737 400.508 239.082L400.543 239.298C400.6 239.643 400.729 239.936 400.931 240.176C401.133 240.416 401.39 240.584 401.701 240.68C402.012 240.777 402.355 240.794 402.729 240.733C403.052 240.68 403.335 240.581 403.577 240.438C403.82 240.295 404.024 240.099 404.19 239.85L405.049 240.562C404.839 240.906 404.551 241.194 404.183 241.424C403.82 241.646 403.388 241.799 402.884 241.881Z" fill="#B0D8F6"></path><rect x="184.342" y="222.506" width="66.2153" height="27.323" rx="4.55383" transform="rotate(-9.33815 184.342 222.506)" fill="white"></rect><path d="M198.906 237.503L195.163 230.365L196.619 230.126L199.974 236.585L199.251 236.704L200.447 229.496L201.741 229.284L205.118 235.74L204.417 235.855L205.581 228.652L206.918 228.432L205.657 236.393L204.169 236.638L201.097 230.819L201.485 230.755L200.405 237.257L198.906 237.503ZM208.519 235.922L207.572 230.163L208.856 229.952L209.117 231.538L208.889 231.099C208.998 230.682 209.219 230.343 209.553 230.081C209.893 229.819 210.341 229.642 210.894 229.551L211.105 230.834C211.045 230.829 210.99 230.831 210.94 230.839C210.888 230.84 210.838 230.845 210.787 230.853C210.277 230.937 209.895 231.155 209.643 231.506C209.39 231.851 209.311 232.318 209.408 232.907L209.868 235.701L208.519 235.922ZM215.112 234.916C214.522 235.013 213.977 234.973 213.475 234.797C212.973 234.614 212.552 234.321 212.212 233.919C211.873 233.517 211.657 233.032 211.563 232.464C211.469 231.889 211.518 231.361 211.712 230.878C211.905 230.389 212.211 229.98 212.63 229.653C213.048 229.326 213.552 229.114 214.142 229.017C214.739 228.919 215.288 228.957 215.789 229.133C216.298 229.308 216.718 229.594 217.049 229.99C217.387 230.384 217.604 230.873 217.7 231.455C217.793 232.023 217.743 232.552 217.551 233.042C217.365 233.53 217.06 233.942 216.635 234.278C216.217 234.605 215.709 234.818 215.112 234.916ZM214.922 233.762C215.253 233.707 215.536 233.587 215.771 233.401C216.006 233.214 216.173 232.973 216.272 232.676C216.378 232.378 216.401 232.046 216.341 231.679C216.279 231.305 216.151 230.997 215.957 230.756C215.768 230.507 215.532 230.331 215.25 230.23C214.967 230.129 214.664 230.105 214.341 230.158C214.01 230.212 213.727 230.333 213.492 230.519C213.264 230.704 213.097 230.946 212.991 231.244C212.884 231.535 212.861 231.867 212.922 232.241C212.982 232.608 213.111 232.915 213.306 233.164C213.502 233.412 213.738 233.587 214.013 233.69C214.296 233.791 214.599 233.815 214.922 233.762ZM221.685 233.835C221.082 233.934 220.522 233.897 220.006 233.723C219.496 233.541 219.071 233.249 218.732 232.847C218.393 232.445 218.176 231.96 218.083 231.392C217.988 230.817 218.038 230.288 218.232 229.806C218.425 229.317 218.734 228.908 219.16 228.579C219.593 228.25 220.111 228.035 220.715 227.936C221.276 227.844 221.788 227.878 222.25 228.038C222.718 228.19 223.099 228.467 223.394 228.869L222.458 229.643C222.241 229.398 221.995 229.232 221.723 229.144C221.457 229.054 221.18 229.033 220.893 229.081C220.562 229.135 220.275 229.256 220.033 229.444C219.791 229.631 219.616 229.874 219.51 230.172C219.403 230.463 219.38 230.795 219.442 231.169C219.503 231.543 219.632 231.854 219.828 232.102C220.022 232.343 220.265 232.514 220.554 232.614C220.844 232.714 221.154 232.737 221.485 232.683C221.772 232.635 222.028 232.527 222.251 232.357C222.481 232.187 222.66 231.95 222.788 231.649L223.923 232.082C223.771 232.55 223.498 232.939 223.106 233.247C222.72 233.547 222.246 233.743 221.685 233.835ZM224.921 233.225L223.605 225.223L224.953 225.002L226.269 233.004L224.921 233.225ZM223.914 231.009L223.229 230.347L226.004 227.42L226.68 228.096L223.914 231.009ZM231.268 232.181L231.077 231.017L230.961 230.781L230.625 228.743C230.56 228.347 230.391 228.061 230.119 227.885C229.845 227.701 229.467 227.649 228.985 227.728C228.662 227.781 228.35 227.884 228.05 228.037C227.758 228.188 227.518 228.371 227.332 228.587L226.642 227.692C226.913 227.404 227.25 227.168 227.656 226.983C228.067 226.79 228.503 226.655 228.963 226.58C229.797 226.442 230.473 226.538 230.992 226.866C231.518 227.186 231.849 227.763 231.986 228.597L232.541 231.972L231.268 232.181ZM229.469 232.555C229.038 232.626 228.648 232.616 228.301 232.525C227.953 232.428 227.667 232.264 227.445 232.035C227.229 231.797 227.094 231.513 227.039 231.182C226.986 230.859 227.014 230.555 227.122 230.272C227.238 229.987 227.459 229.74 227.787 229.531C228.114 229.322 228.569 229.17 229.151 229.074L230.823 228.799L230.97 229.694L229.396 229.953C228.935 230.029 228.639 230.155 228.505 230.332C228.371 230.502 228.321 230.695 228.357 230.91C228.397 231.155 228.526 231.333 228.744 231.445C228.961 231.557 229.243 231.584 229.588 231.527C229.919 231.473 230.201 231.349 230.435 231.156C230.676 230.961 230.83 230.707 230.897 230.393L231.256 231.164C231.182 231.524 230.992 231.825 230.685 232.067C230.385 232.308 229.979 232.471 229.469 232.555ZM235.007 231.567L231.946 226.155L233.219 225.946L235.866 230.728L235.262 230.827L236.324 225.435L237.457 225.249L240.136 230.025L239.543 230.123L240.574 224.737L241.771 224.54L240.593 230.648L239.299 230.861L236.877 226.64L237.276 226.575L236.301 231.354L235.007 231.567Z" fill="#36A8C3"></path></g></g><defs><clipPath id="clip0_173_249"><rect width="1120" height="275" fill="white"></rect></clipPath></defs></svg> 