<?xml version="1.0" encoding="UTF-8"?> <svg xmlns="http://www.w3.org/2000/svg" width="46" height="45" viewBox="0 0 46 45" fill="none"><rect x="0.277344" width="45" height="45" rx="11.25" fill="white"></rect><rect x="0.277344" width="45" height="45" rx="22.5" fill="white"></rect><path d="M19.2045 22.4998C19.2045 20.7217 20.6231 19.2799 22.3734 19.2799C24.1238 19.2799 25.5431 20.7217 25.5431 22.4998C25.5431 24.2779 24.1238 25.7197 22.3734 25.7197C20.6231 25.7197 19.2045 24.2779 19.2045 22.4998ZM17.4911 22.4998C17.4911 25.2391 19.6769 27.4596 22.3734 27.4596C25.07 27.4596 27.2558 25.2391 27.2558 22.4998C27.2558 19.7605 25.07 17.54 22.3734 17.54C19.6769 17.54 17.4911 19.7605 17.4911 22.4998ZM26.3081 17.3434C26.308 17.5726 26.3748 17.7967 26.5001 17.9874C26.6254 18.1781 26.8035 18.3267 27.012 18.4145C27.2204 18.5023 27.4499 18.5254 27.6712 18.4807C27.8925 18.4361 28.0959 18.3258 28.2555 18.1638C28.4152 18.0017 28.5239 17.7952 28.568 17.5704C28.6121 17.3456 28.5896 17.1125 28.5034 16.9007C28.4171 16.6889 28.2709 16.5078 28.0833 16.3804C27.8957 16.2529 27.6752 16.1849 27.4495 16.1848H27.4491C27.1466 16.1849 26.8565 16.307 26.6426 16.5242C26.4286 16.7415 26.3083 17.0361 26.3081 17.3434ZM18.5321 30.362C17.6051 30.3191 17.1012 30.1623 16.7664 30.0297C16.3225 29.8542 16.0058 29.6451 15.6727 29.3072C15.3397 28.9694 15.1336 28.648 14.9615 28.197C14.831 27.857 14.6766 27.345 14.6344 26.4033C14.5883 25.3852 14.5791 25.0793 14.5791 22.4999C14.5791 19.9205 14.5891 19.6155 14.6344 18.5965C14.6767 17.6548 14.8322 17.1438 14.9615 16.8028C15.1343 16.3518 15.3402 16.0301 15.6727 15.6918C16.0053 15.3535 16.3217 15.1441 16.7664 14.9693C17.1011 14.8367 17.6051 14.6798 18.5321 14.637C19.5344 14.5902 19.8354 14.5808 22.3734 14.5808C24.9114 14.5808 25.2128 14.591 26.2159 14.637C27.1429 14.6799 27.6459 14.8379 27.9816 14.9693C28.4255 15.1441 28.7422 15.3539 29.0753 15.6918C29.4083 16.0296 29.6137 16.3518 29.7865 16.8028C29.917 17.1428 30.0714 17.6548 30.1136 18.5965C30.1597 19.6155 30.1689 19.9205 30.1689 22.4999C30.1689 25.0793 30.1597 25.3843 30.1136 26.4033C30.0713 27.345 29.9162 27.8568 29.7865 28.197C29.6137 28.648 29.4078 28.9697 29.0753 29.3072C28.7427 29.6448 28.4255 29.8542 27.9816 30.0297C27.6469 30.1623 27.1429 30.3192 26.2159 30.362C25.2136 30.4088 24.9126 30.4182 22.3734 30.4182C19.8343 30.4182 19.5341 30.4088 18.5321 30.362ZM18.4534 12.8993C17.4412 12.9461 16.7495 13.1092 16.1455 13.348C15.5199 13.5945 14.9904 13.9253 14.4612 14.4621C13.932 14.9988 13.6072 15.5376 13.3645 16.1731C13.1294 16.7871 12.9689 17.4893 12.9228 18.5176C12.876 19.5475 12.8652 19.8767 12.8652 22.4998C12.8652 25.1229 12.876 25.4521 12.9228 26.482C12.9689 27.5104 13.1294 28.2125 13.3645 28.8265C13.6072 29.4616 13.9321 30.0011 14.4612 30.5376C14.9903 31.0741 15.5199 31.4044 16.1455 31.6517C16.7507 31.8904 17.4412 32.0535 18.4534 32.1003C19.4677 32.1471 19.7913 32.1588 22.3734 32.1588C24.9555 32.1588 25.2797 32.1479 26.2935 32.1003C27.3057 32.0535 27.997 31.8904 28.6014 31.6517C29.2266 31.4044 29.7565 31.0743 30.2857 30.5376C30.8149 30.0008 31.139 29.4616 31.3824 28.8265C31.6174 28.2125 31.7787 27.5103 31.824 26.482C31.8701 25.4514 31.8809 25.1229 31.8809 22.4998C31.8809 19.8767 31.8701 19.5475 31.824 18.5176C31.7779 17.4893 31.6174 16.7867 31.3824 16.1731C31.139 15.538 30.814 14.9996 30.2857 14.4621C29.7573 13.9245 29.2266 13.5945 28.6021 13.348C27.997 13.1092 27.3057 12.9454 26.2942 12.8993C25.2804 12.8525 24.9563 12.8408 22.3742 12.8408C19.7921 12.8408 19.4677 12.8517 18.4534 12.8993Z" fill="#36A8C3"></path></svg> 