<?xml version="1.0" encoding="UTF-8"?> <svg xmlns="http://www.w3.org/2000/svg" width="46" height="46" viewBox="0 0 46 46" fill="none"><rect x="0.675781" y="0.166626" width="45" height="45" rx="11.25" fill="#36A8C3"></rect><rect x="0.675781" y="0.166626" width="45" height="45" rx="22.5" fill="#36A8C3"></rect><path d="M19.603 22.6667C19.603 20.8886 21.0215 19.4468 22.7719 19.4468C24.5222 19.4468 25.9415 20.8886 25.9415 22.6667C25.9415 24.4448 24.5222 25.8866 22.7719 25.8866C21.0215 25.8866 19.603 24.4448 19.603 22.6667ZM17.8895 22.6667C17.8895 25.406 20.0753 27.6265 22.7719 27.6265C25.4684 27.6265 27.6542 25.406 27.6542 22.6667C27.6542 19.9274 25.4684 17.7069 22.7719 17.7069C20.0753 17.7069 17.8895 19.9274 17.8895 22.6667ZM26.7065 17.5103C26.7064 17.7395 26.7732 17.9636 26.8985 18.1543C27.0238 18.3449 27.202 18.4936 27.4104 18.5814C27.6189 18.6692 27.8483 18.6922 28.0696 18.6476C28.291 18.603 28.4943 18.4927 28.654 18.3306C28.8136 18.1686 28.9223 17.9621 28.9665 17.7373C29.0106 17.5125 28.9881 17.2794 28.9018 17.0676C28.8155 16.8558 28.6694 16.6747 28.4818 16.5472C28.2942 16.4198 28.0736 16.3517 27.8479 16.3516H27.8475C27.545 16.3518 27.2549 16.4739 27.041 16.6911C26.8271 16.9084 26.7068 17.203 26.7065 17.5103ZM18.9306 30.5289C18.0035 30.486 17.4997 30.3291 17.1648 30.1966C16.7209 30.021 16.4042 29.8119 16.0712 29.4741C15.7382 29.1363 15.532 28.8148 15.36 28.3639C15.2294 28.0239 15.075 27.5119 15.0329 26.5702C14.9868 25.552 14.9776 25.2462 14.9776 22.6668C14.9776 20.0873 14.9875 19.7824 15.0329 18.7634C15.0751 17.8217 15.2307 17.3107 15.36 16.9697C15.5328 16.5187 15.7386 16.1969 16.0712 15.8586C16.4037 15.5203 16.7202 15.3109 17.1648 15.1361C17.4995 15.0035 18.0035 14.8467 18.9306 14.8039C19.9328 14.7571 20.2339 14.7477 22.7719 14.7477C25.3099 14.7477 25.6112 14.7578 26.6143 14.8039C27.5413 14.8468 28.0443 15.0048 28.38 15.1361C28.8239 15.3109 29.1407 15.5208 29.4737 15.8586C29.8067 16.1965 30.0121 16.5187 30.1849 16.9697C30.3154 17.3097 30.4699 17.8217 30.512 18.7634C30.5581 19.7824 30.5673 20.0873 30.5673 22.6668C30.5673 25.2462 30.5581 25.5512 30.512 26.5702C30.4698 27.5119 30.3146 28.0237 30.1849 28.3639C30.0121 28.8148 29.8063 29.1366 29.4737 29.4741C29.1411 29.8116 28.8239 30.021 28.38 30.1966C28.0453 30.3292 27.5413 30.4861 26.6143 30.5289C25.6121 30.5757 25.311 30.5851 22.7719 30.5851C20.2327 30.5851 19.9325 30.5757 18.9306 30.5289ZM18.8518 13.0662C17.8396 13.113 17.148 13.2761 16.5439 13.5148C15.9184 13.7614 15.3888 14.0922 14.8596 14.6289C14.3304 15.1657 14.0056 15.7045 13.7629 16.34C13.5278 16.954 13.3673 17.6562 13.3213 18.6845C13.2744 19.7144 13.2637 20.0436 13.2637 22.6667C13.2637 25.2898 13.2744 25.619 13.3213 26.6489C13.3673 27.6772 13.5278 28.3794 13.7629 28.9934C14.0056 29.6285 14.3305 30.1679 14.8596 30.7044C15.3887 31.2409 15.9184 31.5713 16.5439 31.8185C17.1491 32.0573 17.8396 32.2204 18.8518 32.2672C19.8662 32.314 20.1897 32.3257 22.7719 32.3257C25.354 32.3257 25.6781 32.3148 26.6919 32.2672C27.7042 32.2204 28.3954 32.0573 28.9998 31.8185C29.625 31.5713 30.1549 31.2412 30.6841 30.7044C31.2133 30.1677 31.5374 29.6285 31.7808 28.9934C32.0159 28.3794 32.1771 27.6772 32.2225 26.6489C32.2686 25.6182 32.2793 25.2898 32.2793 22.6667C32.2793 20.0436 32.2686 19.7144 32.2225 18.6845C32.1764 17.6561 32.0159 16.9536 31.7808 16.34C31.5374 15.7049 31.2125 15.1665 30.6841 14.6289C30.1558 14.0914 29.625 13.7614 29.0006 13.5148C28.3954 13.2761 27.7041 13.1122 26.6927 13.0662C25.6789 13.0194 25.3547 13.0077 22.7726 13.0077C20.1905 13.0077 19.8662 13.0186 18.8518 13.0662Z" fill="white"></path></svg> 