<?xml version="1.0" encoding="UTF-8"?> <svg xmlns="http://www.w3.org/2000/svg" width="45" height="45" viewBox="0 0 45 45" fill="none"><rect width="45" height="45" rx="11.25" fill="white"></rect><path d="M12.4874 22.5303C17.3192 20.3077 20.5412 18.8423 22.1533 18.1344C26.7563 16.113 27.7127 15.7618 28.3361 15.7501C28.4732 15.7477 28.7798 15.7836 28.9784 15.9537C29.1461 16.0974 29.1922 16.2914 29.2143 16.4276C29.2364 16.5638 29.2639 16.8741 29.242 17.1165C28.9926 19.8837 27.9133 26.5988 27.3642 29.698C27.1318 31.0095 26.6744 31.4492 26.2315 31.4922C25.2689 31.5857 24.538 30.8206 23.6058 30.1754C22.147 29.1657 21.3229 28.5372 19.9069 27.552C18.2705 26.4134 19.3313 25.7877 20.2639 24.7649C20.508 24.4973 24.7488 20.4246 24.8309 20.0551C24.8412 20.0089 24.8507 19.8366 24.7538 19.7457C24.6569 19.6548 24.5139 19.6859 24.4106 19.7106C24.2643 19.7456 21.9339 21.372 17.4194 24.5895C16.7579 25.0691 16.1587 25.3028 15.6219 25.2905C15.0301 25.277 13.8917 24.9372 13.0455 24.6468C12.0075 24.2905 11.1825 24.1022 11.2544 23.4972C11.2918 23.1821 11.7028 22.8598 12.4874 22.5303Z" fill="#36A8C3"></path></svg> 