<?xml version="1.0" encoding="UTF-8"?> <svg xmlns="http://www.w3.org/2000/svg" width="46" height="46" viewBox="0 0 46 46" fill="none"><rect x="0.398438" y="0.166626" width="45" height="45" rx="11.25" fill="#36A8C3"></rect><path d="M12.8858 22.697C17.7177 20.4743 20.9396 19.009 22.5518 18.301C27.1547 16.2796 28.1112 15.9285 28.7346 15.9167C28.8717 15.9143 29.1782 15.9502 29.3768 16.1203C29.5445 16.264 29.5906 16.458 29.6127 16.5942C29.6348 16.7304 29.6623 17.0407 29.6404 17.2832C29.391 20.0503 28.3117 26.7654 27.7626 29.8647C27.5303 31.1761 27.0728 31.6158 26.6299 31.6588C25.6674 31.7523 24.9365 30.9872 24.0042 30.342C22.5455 29.3324 21.7213 28.7039 20.3053 27.7187C18.6689 26.5801 19.7297 25.9543 20.6623 24.9316C20.9064 24.6639 25.1473 20.5912 25.2294 20.2217C25.2396 20.1755 25.2492 20.0033 25.1522 19.9123C25.0553 19.8214 24.9123 19.8525 24.8091 19.8772C24.6628 19.9123 22.3323 21.5386 17.8178 24.7561C17.1563 25.2357 16.5572 25.4694 16.0204 25.4571C15.4286 25.4436 14.2902 25.1039 13.4439 24.8134C12.4059 24.4572 11.581 24.2688 11.6528 23.6638C11.6902 23.3487 12.1012 23.0264 12.8858 22.697Z" fill="white"></path></svg> 